<svg class="ba-logo" xmlns="http://www.w3.org/2000/svg" viewBox="0 0 186.7 69.11"><g class="ba-logo__mark"><path d="M12 32.86c12.1-1.4 21.2-9.9 20.7-19.7a16.28 16.28 0 00-5.5-11.1H12.5a15.89 15.89 0 017 12.9c0 9.3-8.7 17-19.5 17v1.8c10.8 0 19.5 7.7 19.5 17a15.89 15.89 0 01-7 12.9h14.6a16.28 16.28 0 005.5-11.1c.6-9.8-8.5-18.3-20.6-19.7m39.3-30.8H37.9l20 61.6h13.4z"></path></g><g class="ba-logo__type"><path d="M183.9 52.9a1.85 1.85 0 00.2-.7c0-.6-.4-.7-1.7-.8v-.8h4.3v.8c-.9.2-1 .4-1.3.9L179.9 66c-.8 2-1.7 3.1-3.3 3.1a1.88 1.88 0 01-1.9-1.1v-1.3a8.81 8.81 0 001.7.2 2.51 2.51 0 002.7-1.7l.4-1.1-5.3-11.8c-.2-.5-.4-.7-1.3-.9v-.8h6.7v.8c-1.3.1-1.7.3-1.7.8 0 .2.1.5.1.7l3 7.3zm-15.4 1.6c0-1.4-.5-2.1-1.8-2.1a4.59 4.59 0 00-2.5 1v8.3c0 .9.3 1 1.5 1.1v.8h-6.4v-.8c1.2-.1 1.5-.2 1.5-1.1v-7.2c0-1.4-.5-2.1-1.8-2.1a5.24 5.24 0 00-2.6 1v8.4c0 .9.3 1 1.5 1.1v.8h-6.5v-.8c1.2-.1 1.6-.2 1.6-1.1V53l-1.5-.9v-.5l4.4-1.4h.6l-.1 2.4a5.24 5.24 0 014.4-2.4 2.85 2.85 0 013.2 2.5 5.78 5.78 0 014.5-2.5c2.3 0 3.4 1.4 3.4 4v7.5c0 .9.4 1 1.5 1.1v.8H167v-.8c1.1-.1 1.5-.2 1.5-1.1zm-26.2.6h4.9c0-2.3-.6-3.9-2.2-3.9s-2.5 1.6-2.7 3.9m8.1.3v.6h-8.1c-.1 3.5 1.7 5.5 4.1 5.5a4.27 4.27 0 003.7-2l.4.2a5.18 5.18 0 01-5.3 4.1c-3.6 0-6-2.6-6-6.5 0-4.2 2.7-7.1 6.1-7.1a4.9 4.9 0 015.1 5.2M128 56.5c0 3 1.2 5.3 3.5 5.3a3.23 3.23 0 002.1-.8v-6.5c0-1.9-.8-3.1-2.3-3.1-2.1 0-3.3 2-3.3 5.1m4.1-10.5v-.5l4.4-1.2h.5V61c0 .8 0 1.1 1 1.2l.6.1v.7l-4.5.9h-.6l.1-2.3a4.58 4.58 0 01-4 2.3c-3 0-5-2.4-5-6.2 0-4.7 2.8-7.4 6.3-7.4a4.39 4.39 0 012.7.9v-4.5zm-13.3 15.1v-4.6l-2.1.9a2.23 2.23 0 00-1.7 2.3c0 1.3.6 2.2 1.9 2.2a2.73 2.73 0 001.9-.8m3.4-.2c0 .8.2 1.4.8 1.4a3.55 3.55 0 001-.2l.1.5a3.72 3.72 0 01-2.8 1.3 2.42 2.42 0 01-2.5-2.2 4.71 4.71 0 01-3.9 2.1 3 3 0 01-3.3-2.7v-.4c0-2.1 1.5-3 3.4-3.7l3.7-1.4v-2.1c0-1.4-.5-2.4-1.8-2.4s-1.7.9-1.7 2.1a7.72 7.72 0 00.2 1.5l-2.1.3a1.54 1.54 0 01-1.1-1.6c0-2.1 2.1-3.1 4.9-3.1 3.2 0 4.9 1.2 4.9 4.1zm-15.7.5a3.88 3.88 0 003.5-1.8l.4.2a5 5 0 01-5.1 4c-3.3 0-5.8-2.5-5.8-6.4 0-4.1 2.5-7.2 6.4-7.2 2.4 0 4.1 1 4.1 2.9a2 2 0 01-.9 1.7h-1.9a4.87 4.87 0 00.1-1.2c0-1.3-.4-2.4-1.8-2.4-1.9 0-3 2.1-3 4.9 0 3.2 1.5 5.3 4 5.3m-19.9-4.6h5.8l-3-7.4zm6.2 1.1h-6.7L85 60.7a3 3 0 00-.2 1c0 .8.6 1.1 2.1 1.1v.9h-5.1v-.9c.7-.1 1.2-.2 1.5-.9L88.8 48l-.8-1.9h3.9l6.4 15.7c.3.7.8.8 1.5.9v.9h-7.6v-.9c1.5 0 2.1-.3 2.1-1.1a3.55 3.55 0 00-.2-1zm51.7-33.2L143 24v-.5l4.4-1.2h.5v8.4a5.6 5.6 0 014.6-2.4c2.3 0 3.6 1.4 3.6 4.1v7.4c0 .9.4 1 1.5 1.1v.8h-6.5v-.8c1.1-.1 1.5-.2 1.5-1.1v-7.2c0-1.4-.6-2.2-1.9-2.2a4.93 4.93 0 00-2.7 1v8.4c0 .9.4 1 1.5 1.1v.8H143v-.8c1.1-.1 1.5-.2 1.5-1.1V24.7zM133 40.6l-.1-3.4h.9c.5 2.2 1.8 3.8 3.7 3.8 1.3 0 2.3-.6 2.3-2s-.9-1.9-2.9-2.6c-2.6-.9-4-2-4-4.3 0-2.5 1.9-3.9 4.6-3.9a8 8 0 014 1.1v3h-.8c-.4-1.8-1.4-3.2-3.2-3.2a1.81 1.81 0 00-2 1.6v.2c0 1.1.8 1.7 2.7 2.4 2.7.9 4.3 2 4.3 4.4 0 2.6-2 4.2-5 4.2a7.89 7.89 0 01-4.5-1.3m-6.7-15.8a2.06 2.06 0 011.9-2h.1a2 2 0 01.1 3.9h-.2a1.84 1.84 0 01-1.9-1.9m3.8 14.9c0 .9.4 1 1.6 1.1v.8h-6.5v-.8c1.2-.1 1.6-.2 1.6-1.1v-8.8l-1.5-.9v-.5l4.4-1.4h.5v11.6zm-9.7-11.2h3.2v1.1h-3.2v8.2c0 1.5.6 2.2 1.7 2.2a2.81 2.81 0 001.9-.7l.3.4a4.2 4.2 0 01-3.8 2.1c-2 0-3.5-1.1-3.5-3.8v-8.4h-1.5V29a9.62 9.62 0 004.2-3.8h.7zM110 24.8a2.06 2.06 0 011.9-2h.1a2 2 0 01.1 3.9h-.2a1.84 1.84 0 01-1.9-1.9m3.7 14.9c0 .9.4 1 1.6 1.1v.8h-6.5v-.8c1.2-.1 1.6-.2 1.6-1.1v-8.8l-1.5-.9v-.5l4.4-1.4h.5v11.6zm-10.4-.2c0 1 .6 1.2 2.1 1.3v.8h-7.1v-.8c1.2-.1 1.6-.2 1.6-1.1v-8.8l-1.5-.9v-.5l4.4-1.4h.6l-.1 3.7c1.2-2.7 1.9-3.7 3.4-3.7a1.5 1.5 0 011.1.4v2.7h-.5a4.9 4.9 0 00-4 1.3zm-15.2-6.3v5.7c0 1.3.6 1.7 2.1 1.7h.2c2.2 0 3.4-1.3 3.4-3.7 0-2.2-1.2-3.7-4-3.7zm0-8v6.9h1.2c2.4 0 3.6-1.2 3.6-3.5s-1.3-3.4-3.6-3.4zm-5.6 16.4v-.9c1.7-.2 2-.3 2-1.7V26.8c0-1.4-.2-1.5-2-1.7v-.9h8c3.8 0 6 1.5 6 4.3 0 2.5-2.3 3.8-4.6 4.1 3.3.1 5.6 1.7 5.6 4.3 0 3-2.3 4.7-6.6 4.7zM117 10.9h4.9c0-2.3-.6-3.9-2.2-3.9s-2.6 1.6-2.7 3.9m8 .3v.6h-8.1c-.1 3.5 1.7 5.5 4.1 5.5a4.27 4.27 0 003.7-2l.4.2a5.18 5.18 0 01-5.3 4.1c-3.6 0-6-2.6-6-6.5 0-4.2 2.7-7.1 6.1-7.1a4.9 4.9 0 015.1 5.2m-24.6-8.7l-1.5-.8v-.5l4.4-1.2h.5v8.4a5.6 5.6 0 014.6-2.4c2.3 0 3.6 1.4 3.6 4.1v7.4c0 .9.4 1 1.5 1.1v.8H107v-.8c1.1-.1 1.5-.2 1.5-1.1v-7.2c0-1.4-.6-2.2-1.9-2.2a4.93 4.93 0 00-2.7 1v8.4c0 .9.4 1 1.5 1.1v.8h-6.5v-.8c1.1-.1 1.5-.2 1.5-1.1zm-2.7-.4l.4 5.7h-.8C95.7 4.1 95.1 3 93.2 3h-1.3v14c0 1.4.5 1.4 2.2 1.6v.9H86v-.9c1.7-.2 2.2-.3 2.2-1.6V3H87c-1.9 0-2.5 1.1-4.1 4.8h-.8l.4-5.7z"></path></g></svg>
