<svg id="Layer_1" data-name="Layer 1" xmlns="http://www.w3.org/2000/svg" viewBox="0 0 283.46 56.69"><defs><style>.cls-1{fill:#2e2d2c;}</style></defs><path class="cls-1" d="M33.52,28.35V44.68H45.14v2.44H30.67V28.35Zm25.42,0V47.12H73.31V44.68H61.79V38.82H72.7V36.38H61.79V30.79H73.31V28.35Zm42.26,0L94.83,43.87,88.45,28.35H85.34l8.1,18.77h2.78l8.1-18.77Zm15,0V47.12h14.37V44.68H119.1V38.82H130V36.38H119.1V30.79h11.52V28.35Zm45,18.77-5-8.47a5.37,5.37,0,0,0,4.3-5.19c0-3-2.67-5.11-6.34-5.11H145.4V47.12h2.85V38.89h5.18l4.65,8.23Zm-13-16.33h6c1.94,0,3.36,1.11,3.36,2.67a3.09,3.09,0,0,1-3.36,3h-6Zm40-2.44v8H177.91v-8h-2.85V47.12h2.85V38.79h10.37v8.33h2.85V28.35Zm32.07,0V39.43a5.81,5.81,0,0,1-11.59,0V28.35h-2.85v11c0,4.94,4.1,7.89,8.68,7.89s8.61-2.95,8.61-7.89v-11Zm17.63,0V47.12h14.48V44.68H240.83V28.35Zm42.24,0-5.76,7.93-5.76-7.93h-2.45V47.12h2.85v-14l5,6.82h.74l5-6.82v14h2.85V28.35Zm17.22,0V47.12h14.37V44.68H300.29V38.82H311.2V36.38H300.29V30.79h11.52V28.35ZM28.35,65.92v2.45h8.13V84.7h2.85V68.37h8.13V65.92ZM74.05,84.7l-5-8.47A5.37,5.37,0,0,0,73.34,71c0-3-2.68-5.12-6.34-5.12H58.19V84.7H61V76.46h5.18l4.65,8.24ZM61,68.37h6c1.94,0,3.36,1.11,3.36,2.67A3.09,3.09,0,0,1,67,74H61Zm39.58-2.45V77A5.81,5.81,0,0,1,89,77V65.92H86.19V77c0,5,4.1,7.9,8.67,7.9s8.61-3,8.61-7.9v-11ZM124.06,82.6c-3.49,0-5.83-1.56-6-4.65h-3c.1,4.31,3.52,7.09,9,7.09,4.68,0,7.73-2.07,7.73-5.49,0-4.2-4.61-5-7.53-5.6-4.4-.8-5.42-1.69-5.42-3.18,0-1.83,1.59-2.74,4.44-2.74,3.42,0,5.15,1.25,5.25,3.86h3c-.13-4-3.15-6.3-8.2-6.3-4.61,0-7.45,1.89-7.45,5.42s3,4.37,7.66,5.39c3.32.71,5.28,1.12,5.28,3.15s-1.93,3-4.74,3m19.71-16.68v2.45h8.14V84.7h2.85V68.37h8.13V65.92ZM175.06,84.7H311.81V82.26H175.06Z" transform="translate(-28.35 -28.35)"/></svg>
